# xmcd
#
# Track frame offsets:
#      150
#      14978
#      28973
#      42940
#      56757
#      65557
#      76397
#      89559
#      99042
#      114937
# 
# Disc length: 1733 seconds
#
# Revision: 4
# Processed by: cddbd v1.4PL0 Copyright (c) Steve Scherf et al.
#
# Submitted via: FreeRIP 1.21
#
DISCID=8306c30a
DTITLE=Merle Haggard - A Friend In California
DYEAR=1986
DGENRE=Country
TTITLE0=Merle Haggard-A Friend In California-86-A Friend In California
TTITLE1=Merle Haggard-This Time I Really Do-'86-A Friend In California
TTITLE2=Merle Haggard-This Cold War With You-'86-A Friend In California
TTITLE3=Merle Haggard-I Had A Beautiful Time-'86-A Friend In California
TTITLE4=Merle Haggard-Texas-'86-A Friend In California
TTITLE5=Merle Haggard-The Okie From Muskogee's Comin' Home-'86-A Friend In California
TTITLE6=Merle Haggard-Mama's Prayer-'86-A Friend In California
TTITLE7=Merle Haggard-Silverthorn Mountain-'86-A Friend In California
TTITLE8=Merle Haggard-This Song Is For You-'86-A Friend In California
TTITLE9=Merle Haggard-Thank You For Keeping My House-'86-A Friend In California
EXTD=
EXTT0=
EXTT1=
EXTT2=
EXTT3=
EXTT4=
EXTT5=
EXTT6=
EXTT7=
EXTT8=
EXTT9=
PLAYORDER=
